<svg width="152" height="122" viewBox="0 0 152 122" fill="none" xmlns="http://www.w3.org/2000/svg">
<circle cx="61" cy="61" r="61" fill="#FFC9AE"/>
<path d="M101.912 54.7423C99.9087 53.5931 99.9006 50.7062 101.897 49.546L131.86 32.1364C133.856 30.9765 136.361 32.4132 136.367 34.7225L136.463 69.3747C136.47 71.6839 133.974 73.1346 131.971 71.9858L101.912 54.7423Z" fill="#EEEBE8" stroke="#3F5675" stroke-width="2"/>
<rect x="47" y="31.4272" width="65.9512" height="42.0765" rx="3" fill="white" stroke="#3F5675" stroke-width="2"/>
<path d="M87.9366 50.7631C89.2651 51.5411 89.2531 53.4656 87.915 54.2271L77.2763 60.2813C75.9382 61.0428 74.2776 60.0701 74.2871 58.5306L74.3634 46.29C74.373 44.7505 76.0457 43.7986 77.3742 44.5767L87.9366 50.7631Z" fill="#73716F"/>
<rect x="1" y="56" width="68" height="43.618" rx="3" fill="white" stroke="#3F5675" stroke-width="2"/>
<path d="M21.2358 90.5273C21.2358 86.1091 24.8176 82.5273 29.2358 82.5273H39.9774C44.3957 82.5273 47.9774 86.1091 47.9774 90.5273V98.0442H21.2358V90.5273Z" fill="#D9D9D9"/>
<circle cx="34.6067" cy="73.8764" r="7.86517" fill="#73716F"/>
<circle cx="61" cy="63" r="3" fill="#73716F"/>
</svg>
