<svg width="857" height="498" viewBox="0 0 857 498" fill="none" xmlns="http://www.w3.org/2000/svg">
<path d="M0 8.00001C0 3.58174 3.58172 0 8 0H849C853.418 0 857 3.58172 857 8V490C857 494.418 853.418 498 849 498H7.99998C3.5817 498 0 494.418 0 490V8.00001Z" fill="#D1D1D1" fill-opacity="0.2"/>
<circle cx="436.5" cy="195.5" r="48.5" fill="#A0A0A0" fill-opacity="0.1"/>
<circle cx="597.5" cy="195.5" r="48.5" fill="#A0A0A0" fill-opacity="0.1"/>
<circle cx="758.5" cy="195.5" r="48.5" fill="#A0A0A0" fill-opacity="0.1"/>
<path d="M54 165C54 151.745 64.7452 141 78 141H330C343.255 141 354 151.745 354 165V415C354 428.255 343.255 439 330 439H78C64.7452 439 54 428.255 54 415V165Z" fill="#A0A0A0" fill-opacity="0.1"/>
<path d="M54 64C54 59.0294 58.0294 55 63 55H288C292.971 55 297 59.0294 297 64V64C297 68.9706 292.971 73 288 73H63C58.0294 73 54 68.9706 54 64V64Z" fill="#A0A0A0" fill-opacity="0.1"/>
<path d="M377 280C377 275.029 381.029 271 386 271H611C615.971 271 620 275.029 620 280V280C620 284.971 615.971 289 611 289H386C381.029 289 377 284.971 377 280V280Z" fill="#A0A0A0" fill-opacity="0.1"/>
<path d="M636 295C636 281.745 646.745 271 660 271H783C796.255 271 807 281.745 807 295V367C807 380.255 796.255 391 783 391H660C646.745 391 636 380.255 636 367V295Z" fill="#A0A0A0" fill-opacity="0.1"/>
<path d="M377 314C377 309.029 381.029 305 386 305H611C615.971 305 620 309.029 620 314V314C620 318.971 615.971 323 611 323H386C381.029 323 377 318.971 377 314V314Z" fill="#A0A0A0" fill-opacity="0.1"/>
<path d="M377 348C377 343.029 381.029 339 386 339H611C615.971 339 620 343.029 620 348V348C620 352.971 615.971 357 611 357H386C381.029 357 377 352.971 377 348V348Z" fill="#A0A0A0" fill-opacity="0.1"/>
<path d="M377 382C377 377.029 381.029 373 386 373H611C615.971 373 620 377.029 620 382V382C620 386.971 615.971 391 611 391H386C381.029 391 377 386.971 377 382V382Z" fill="#A0A0A0" fill-opacity="0.1"/>
<path d="M377 425C377 417.268 383.268 411 391 411H793C800.732 411 807 417.268 807 425V425C807 432.732 800.732 439 793 439H391C383.268 439 377 432.732 377 425V425Z" fill="#A0A0A0" fill-opacity="0.1"/>
<path d="M54 107C54 102.029 58.0294 98 63 98H798C802.971 98 807 102.029 807 107V107C807 111.971 802.971 116 798 116H63C58.0294 116 54 111.971 54 107V107Z" fill="#A0A0A0" fill-opacity="0.1"/>
<path d="M309 64C309 59.0294 313.029 55 318 55H415C419.971 55 424 59.0294 424 64V64C424 68.9706 419.971 73 415 73H318C313.029 73 309 68.9706 309 64V64Z" fill="#A0A0A0" fill-opacity="0.1"/>
<path d="M437 64C437 59.0294 441.029 55 446 55H544C548.971 55 553 59.0294 553 64V64C553 68.9706 548.971 73 544 73H446C441.029 73 437 68.9706 437 64V64Z" fill="#A0A0A0" fill-opacity="0.1"/>
<path d="M564 64C564 59.0294 568.029 55 573 55H671C675.971 55 680 59.0294 680 64V64C680 68.9706 675.971 73 671 73H573C568.029 73 564 68.9706 564 64V64Z" fill="#A0A0A0" fill-opacity="0.1"/>
<path d="M693 64C693 59.0294 697.029 55 702 55H798C802.971 55 807 59.0294 807 64V64C807 68.9706 802.971 73 798 73H702C697.029 73 693 68.9706 693 64V64Z" fill="#A0A0A0" fill-opacity="0.1"/>
</svg>
