<svg width="858" height="498" viewBox="0 0 858 498" fill="none" xmlns="http://www.w3.org/2000/svg">
<rect width="858" height="498" rx="16" fill="#A0A0A0" fill-opacity="0.2"/>
<rect x="0.5" y="0.5" width="857" height="497" rx="15.5" stroke="#DEDEDE" stroke-opacity="0.4"/>
<circle cx="435.5" cy="197.5" r="48.5" fill="#A0A0A0" fill-opacity="0.1"/>
<circle cx="596.5" cy="197.5" r="48.5" fill="#A0A0A0" fill-opacity="0.1"/>
<circle cx="757.5" cy="197.5" r="48.5" fill="#A0A0A0" fill-opacity="0.1"/>
<path d="M53 167C53 153.745 63.7452 143 77 143H329C342.255 143 353 153.745 353 167V417C353 430.255 342.255 441 329 441H77C63.7452 441 53 430.255 53 417V167Z" fill="#A0A0A0" fill-opacity="0.1"/>
<path d="M53 66C53 61.0294 57.0294 57 62 57H287C291.971 57 296 61.0294 296 66C296 70.9706 291.971 75 287 75H62C57.0294 75 53 70.9706 53 66Z" fill="#A0A0A0" fill-opacity="0.1"/>
<path d="M376 282C376 277.029 380.029 273 385 273H610C614.971 273 619 277.029 619 282C619 286.971 614.971 291 610 291H385C380.029 291 376 286.971 376 282Z" fill="#A0A0A0" fill-opacity="0.1"/>
<path d="M635 297C635 283.745 645.745 273 659 273H782C795.255 273 806 283.745 806 297V369C806 382.255 795.255 393 782 393H659C645.745 393 635 382.255 635 369V297Z" fill="#A0A0A0" fill-opacity="0.1"/>
<path d="M376 316C376 311.029 380.029 307 385 307H610C614.971 307 619 311.029 619 316C619 320.971 614.971 325 610 325H385C380.029 325 376 320.971 376 316Z" fill="#A0A0A0" fill-opacity="0.1"/>
<path d="M376 350C376 345.029 380.029 341 385 341H610C614.971 341 619 345.029 619 350C619 354.971 614.971 359 610 359H385C380.029 359 376 354.971 376 350Z" fill="#A0A0A0" fill-opacity="0.1"/>
<path d="M376 384C376 379.029 380.029 375 385 375H610C614.971 375 619 379.029 619 384C619 388.971 614.971 393 610 393H385C380.029 393 376 388.971 376 384Z" fill="#A0A0A0" fill-opacity="0.1"/>
<path d="M376 427C376 419.268 382.268 413 390 413H792C799.732 413 806 419.268 806 427C806 434.732 799.732 441 792 441H390C382.268 441 376 434.732 376 427Z" fill="#A0A0A0" fill-opacity="0.1"/>
<path d="M53 109C53 104.029 57.0294 100 62 100H797C801.971 100 806 104.029 806 109C806 113.971 801.971 118 797 118H62C57.0294 118 53 113.971 53 109Z" fill="#A0A0A0" fill-opacity="0.1"/>
<path d="M308 66C308 61.0294 312.029 57 317 57H414C418.971 57 423 61.0294 423 66C423 70.9706 418.971 75 414 75H317C312.029 75 308 70.9706 308 66Z" fill="#A0A0A0" fill-opacity="0.1"/>
<path d="M436 66C436 61.0294 440.029 57 445 57H543C547.971 57 552 61.0294 552 66C552 70.9706 547.971 75 543 75H445C440.029 75 436 70.9706 436 66Z" fill="#A0A0A0" fill-opacity="0.1"/>
<path d="M563 66C563 61.0294 567.029 57 572 57H670C674.971 57 679 61.0294 679 66C679 70.9706 674.971 75 670 75H572C567.029 75 563 70.9706 563 66Z" fill="#A0A0A0" fill-opacity="0.1"/>
<path d="M692 66C692 61.0294 696.029 57 701 57H797C801.971 57 806 61.0294 806 66C806 70.9706 801.971 75 797 75H701C696.029 75 692 70.9706 692 66Z" fill="#A0A0A0" fill-opacity="0.1"/>
</svg>
